<svg width="378" height="154" viewBox="0 0 378 154" fill="none" xmlns="http://www.w3.org/2000/svg">
<path d="M227.983 153.487C226.884 153.49 225.817 153.122 224.957 152.445C224.9 152.403 224.843 152.362 224.789 152.316C224.734 152.27 224.675 152.232 224.618 152.189L224.452 152.062C224.393 152.02 224.336 151.976 224.279 151.932L224.113 151.805L223.943 151.676L223.772 151.547C223.715 151.505 223.658 151.464 223.604 151.42L223.437 151.295L223.265 151.164L223.099 151.036C223.04 150.995 222.983 150.951 222.926 150.907L222.758 150.78L222.589 150.651L222.423 150.526L222.25 150.395L222.084 150.27C222.025 150.226 221.968 150.184 221.912 150.138L221.741 150.009L221.575 149.882C221.518 149.843 221.461 149.799 221.407 149.757L221.238 149.628C221.179 149.586 221.122 149.543 221.066 149.497C221.009 149.451 220.954 149.413 220.897 149.37C220.84 149.326 220.784 149.286 220.729 149.24C220.674 149.195 220.615 149.157 220.558 149.113L220.392 148.986C220.335 148.947 220.281 148.903 220.224 148.859L220.051 148.73L219.881 148.601L219.714 148.474L219.548 148.347C219.489 148.305 219.432 148.261 219.376 148.217L219.209 148.09C219.15 148.049 219.094 148.005 219.037 147.961L218.868 147.832L218.698 147.705L218.532 147.578C218.475 147.536 218.416 147.492 218.361 147.448C218.306 147.405 218.248 147.365 218.193 147.321C218.138 147.278 218.077 147.236 218.02 147.19C217.963 147.144 217.909 147.107 217.852 147.063L217.684 146.936L217.517 146.809C217.458 146.767 217.401 146.723 217.345 146.68L217.178 146.553L217.008 146.423L216.837 146.294C216.781 146.255 216.724 146.211 216.669 146.167L216.503 146.04C216.444 145.998 216.387 145.955 216.33 145.911L216.164 145.784L215.991 145.654L215.823 145.525C215.766 145.484 215.709 145.442 215.655 145.398L215.488 145.271C215.429 145.232 215.375 145.188 215.318 145.144L215.147 145.015C215.089 144.973 215.034 144.929 214.977 144.886C214.92 144.842 214.863 144.802 214.809 144.759L214.638 144.629L214.472 144.502C214.423 144.467 214.373 144.429 214.327 144.392L214.169 144.404C213.929 144.419 213.687 144.427 213.447 144.427C211.161 144.431 208.939 143.68 207.133 142.292L206.969 142.164C206.914 142.125 206.857 142.083 206.803 142.039L206.634 141.912L206.462 141.781L206.291 141.652L206.127 141.527C206.07 141.485 206.014 141.443 205.959 141.4L205.786 141.268C205.729 141.229 205.675 141.187 205.62 141.143C205.565 141.1 205.504 141.056 205.447 141.012L205.277 140.885L205.109 140.756L204.944 140.631L204.774 140.504L204.601 140.373L204.433 140.243L204.263 140.116L204.098 139.991L203.926 139.86L203.757 139.733L203.589 139.606L203.416 139.474L203.248 139.347L203.08 139.218L202.911 139.093L202.745 138.966L202.573 138.835L202.402 138.706L202.232 138.576L202.067 138.454L201.895 138.322L201.729 138.195L201.56 138.068C201.501 138.026 201.444 137.981 201.386 137.937L201.219 137.81L201.051 137.683L200.883 137.555L200.712 137.426L200.542 137.297L200.373 137.17L200.203 137.041L200.036 136.914L199.87 136.787C199.811 136.745 199.754 136.701 199.698 136.657L199.527 136.528L199.359 136.399C199.302 136.357 199.245 136.316 199.19 136.272C199.136 136.228 199.077 136.189 199.022 136.145L198.856 136.02L198.683 135.889L198.513 135.759C198.456 135.718 198.399 135.676 198.344 135.632L198.176 135.505L198.006 135.376L197.837 135.247L197.669 135.122L197.498 134.991L197.328 134.861C197.271 134.82 197.214 134.778 197.159 134.734L196.993 134.607L196.823 134.48L196.652 134.351L196.484 134.222C196.425 134.18 196.368 134.136 196.313 134.095L196.147 133.967L195.977 133.838L195.808 133.711L195.638 133.582L195.467 133.453L195.299 133.326L195.133 133.201L194.962 133.069L194.794 132.944L194.623 132.813L194.453 132.686L194.283 132.555C194.228 132.516 194.173 132.474 194.118 132.43C194.062 132.388 194.003 132.344 193.948 132.301L193.78 132.176L193.609 132.046L193.439 131.915L193.268 131.788L193.104 131.663L192.933 131.534C192.875 131.49 192.818 131.448 192.761 131.403L192.593 131.275L192.422 131.146C192.367 131.107 192.313 131.066 192.258 131.021C192.199 130.98 192.142 130.936 192.083 130.89C192.024 130.844 191.974 130.809 191.921 130.765C191.869 130.721 191.803 130.68 191.746 130.634L191.576 130.507L191.41 130.379L191.243 130.252C191.185 130.211 191.128 130.167 191.073 130.123L190.903 129.996L190.732 129.867L190.564 129.738L190.393 129.609C190.336 129.567 190.28 129.525 190.225 129.481C188.986 128.558 187.984 127.359 187.299 125.981C185.122 128.4 182.595 130.488 179.801 132.176C172.957 136.343 163.997 138.749 152.412 139.524C150.791 139.633 149.152 139.687 147.537 139.687C136.457 139.687 126.302 137.118 119.675 132.636C119.571 132.567 119.464 132.494 119.378 132.428C119.319 132.386 119.262 132.342 119.205 132.296C119.148 132.251 119.094 132.215 119.039 132.171C118.984 132.128 118.923 132.086 118.866 132.04C118.81 131.994 118.753 131.957 118.698 131.913C118.643 131.869 118.584 131.83 118.53 131.786C118.475 131.742 118.416 131.703 118.363 131.659C118.311 131.615 118.25 131.575 118.193 131.532L118.023 131.4C117.964 131.359 117.909 131.317 117.852 131.273L117.684 131.144C117.625 131.103 117.57 131.059 117.515 131.017L117.349 130.89C117.29 130.848 117.235 130.807 117.179 130.763L117.006 130.632L116.838 130.502C116.781 130.463 116.724 130.419 116.669 130.375C116.615 130.332 116.558 130.294 116.503 130.25C116.448 130.207 116.385 130.163 116.33 130.119L116.164 129.994L115.992 129.863C115.935 129.821 115.878 129.779 115.823 129.736L115.653 129.606L115.489 129.481C115.43 129.438 115.373 129.396 115.316 129.35C115.259 129.304 115.202 129.267 115.148 129.223C115.093 129.179 115.034 129.14 114.977 129.094C114.92 129.048 114.864 129.011 114.807 128.965C114.75 128.919 114.695 128.881 114.64 128.838C114.586 128.794 114.527 128.756 114.472 128.713L114.299 128.581L114.135 128.456C114.076 128.415 114.017 128.371 113.963 128.325C113.908 128.279 113.849 128.242 113.794 128.198C113.74 128.154 113.679 128.113 113.624 128.069C113.569 128.025 113.512 127.985 113.458 127.944C113.403 127.902 113.342 127.858 113.285 127.812C113.228 127.767 113.174 127.729 113.119 127.687C113.064 127.646 113.003 127.602 112.948 127.558C112.894 127.515 112.833 127.473 112.778 127.429L112.609 127.3C112.553 127.26 112.496 127.217 112.441 127.175L112.275 127.048L112.102 126.917C112.043 126.875 111.989 126.831 111.932 126.787C111.875 126.744 111.818 126.704 111.763 126.66L111.593 126.531L111.429 126.406C111.372 126.364 111.315 126.323 111.26 126.279L111.086 126.148L110.92 126.021C110.861 125.979 110.804 125.935 110.749 125.891L110.583 125.766L110.41 125.635L110.244 125.51L110.073 125.379C110.015 125.337 109.958 125.293 109.903 125.25C109.848 125.206 109.789 125.166 109.735 125.123C109.68 125.079 109.621 125.039 109.568 124.995C109.516 124.952 109.453 124.91 109.396 124.866L109.23 124.741L109.057 124.61C109 124.568 108.943 124.527 108.889 124.483C108.834 124.439 108.775 124.397 108.718 124.354L108.554 124.229C108.495 124.185 108.436 124.141 108.381 124.097L108.215 123.972C108.156 123.929 108.099 123.887 108.043 123.841L107.872 123.712L107.706 123.585C107.649 123.543 107.592 123.501 107.537 123.458C107.483 123.414 107.426 123.374 107.371 123.333L107.196 123.201L107.026 123.072L106.86 122.945C106.801 122.903 106.744 122.86 106.689 122.816L106.523 122.691L106.355 122.562C106.296 122.52 106.239 122.476 106.182 122.433L106.014 122.303C105.955 122.262 105.898 122.22 105.843 122.176L105.675 122.047C105.618 122.008 105.563 121.964 105.509 121.922C105.454 121.88 105.395 121.837 105.34 121.795C105.286 121.753 105.222 121.707 105.166 121.662C105.109 121.616 105.054 121.578 104.999 121.535C104.945 121.491 104.886 121.451 104.829 121.407L104.663 121.28C104.604 121.239 104.547 121.195 104.492 121.151C104.437 121.107 104.378 121.068 104.324 121.024C104.269 120.98 104.208 120.939 104.153 120.895L103.983 120.766C103.926 120.724 103.869 120.682 103.814 120.639L103.648 120.514L103.476 120.382L103.309 120.255C103.25 120.214 103.194 120.17 103.137 120.126L102.968 119.999L102.8 119.87C102.743 119.828 102.686 119.786 102.632 119.743L102.461 119.613C101.944 119.238 101.506 118.765 101.175 118.222C100.844 117.678 100.625 117.074 100.531 116.446L99.9693 116.157C98.5971 115.454 97.2277 114.749 95.8611 114.042C94.1501 113.158 92.397 112.252 90.6481 111.362C89.8911 114.663 88.214 117.687 85.8075 120.091C82.7332 123.241 78.5962 125.163 74.1838 125.489L22.255 128.952C22.1456 128.952 22.0446 128.952 21.9288 128.952C20.8298 128.955 19.7625 128.588 18.9024 127.91C18.8456 127.869 18.7888 127.827 18.734 127.781L18.5636 127.654C18.5088 127.615 18.4541 127.574 18.3994 127.529L18.2247 127.398L18.0606 127.273C18.0016 127.229 17.9448 127.187 17.888 127.142C17.8312 127.096 17.7743 127.058 17.7196 127.014C17.6649 126.971 17.606 126.929 17.5491 126.885L17.3829 126.758C17.3261 126.716 17.2671 126.675 17.2124 126.629C17.1577 126.583 17.0988 126.546 17.044 126.504L16.8736 126.373C16.8167 126.331 16.7599 126.289 16.7031 126.244C16.6463 126.198 16.5895 126.16 16.5347 126.116C16.48 126.073 16.4232 126.033 16.3685 125.991C16.3138 125.95 16.2527 125.906 16.1959 125.86L16.0296 125.735L15.8571 125.604L15.6908 125.477C15.6319 125.435 15.5771 125.391 15.5203 125.348C15.4635 125.304 15.4088 125.264 15.352 125.22L15.1857 125.095L15.0131 124.964L14.8447 124.835C14.7858 124.793 14.729 124.752 14.6743 124.706C14.6196 124.66 14.5606 124.622 14.5059 124.579C14.4512 124.535 14.3944 124.497 14.3396 124.454C14.2849 124.41 14.226 124.368 14.1692 124.324C14.1123 124.281 14.0534 124.239 13.9966 124.195L13.8282 124.066C13.7714 124.024 13.7146 123.983 13.6599 123.939L13.4936 123.812C13.4347 123.77 13.3778 123.726 13.321 123.683L13.1548 123.556L12.9822 123.426L12.8138 123.297C12.757 123.256 12.7002 123.214 12.6454 123.17L12.4792 123.043C12.4203 123.001 12.3634 122.958 12.3066 122.914L12.1403 122.787C12.0814 122.745 12.0246 122.701 11.9678 122.658C11.9109 122.614 11.8541 122.574 11.7994 122.528L11.6289 122.401L11.4648 122.276L11.2922 122.145L11.1259 122.018C11.067 121.976 11.0102 121.932 10.9533 121.889C10.8965 121.845 10.8397 121.805 10.785 121.762C10.7303 121.718 10.6713 121.676 10.6145 121.632L10.4482 121.507L10.2778 121.376C10.2209 121.335 10.1641 121.293 10.1094 121.249C10.0547 121.205 9.99576 121.166 9.93893 121.12C9.88211 121.074 9.82528 121.037 9.76846 120.991C9.71164 120.945 9.65481 120.907 9.60009 120.864L9.43383 120.737C9.37701 120.697 9.32018 120.653 9.26546 120.609C9.21074 120.566 9.14971 120.524 9.09289 120.48L8.92241 120.351L8.75405 120.224L8.58568 120.095L8.41941 119.97L8.25105 119.841C8.19212 119.799 8.13529 119.755 8.07847 119.711L7.9101 119.582C7.85117 119.541 7.79435 119.499 7.73963 119.453C7.68491 119.407 7.62809 119.372 7.57337 119.328C7.51865 119.284 7.45761 119.243 7.40079 119.197C7.34397 119.151 7.28925 119.115 7.23453 119.072L7.06406 118.943C7.00513 118.901 6.95041 118.857 6.89358 118.813C6.83676 118.77 6.77994 118.73 6.72522 118.686L6.55895 118.559C6.50002 118.517 6.4432 118.474 6.38638 118.43L6.22011 118.303C6.16119 118.261 6.10436 118.217 6.04754 118.174L5.87917 118.044C5.82235 118.003 5.76552 117.961 5.7087 117.915C5.65187 117.869 5.59715 117.834 5.54243 117.79L5.37196 117.661L5.2057 117.536L5.03312 117.405L4.86265 117.276L4.69639 117.149C4.63956 117.107 4.58274 117.065 4.52802 117.021C4.4733 116.978 4.41437 116.938 4.35965 116.894C4.30493 116.851 4.2439 116.809 4.18708 116.763C4.13025 116.717 4.07343 116.68 4.01871 116.636C3.96399 116.592 3.90506 116.553 3.85034 116.507C3.79562 116.461 3.73459 116.423 3.67987 116.378C3.62515 116.332 3.56832 116.296 3.5136 116.255L3.34524 116.125C3.28631 116.084 3.22948 116.04 3.17266 115.996L3.00429 115.867C2.94536 115.825 2.89064 115.782 2.83382 115.738C2.777 115.694 2.72228 115.657 2.66966 115.613C2.61705 115.569 2.5518 115.527 2.49498 115.482L2.33082 115.357C2.27189 115.315 2.21507 115.271 2.15825 115.225L1.98777 115.098C1.80099 114.962 1.6238 114.813 1.45742 114.652C0.968924 114.18 0.586987 113.61 0.336704 112.981C0.0864211 112.352 -0.02654 111.677 0.00524451 111.002L2.65914 55.9506C2.71363 54.7759 3.20242 53.6621 4.0325 52.8211C4.86257 51.9801 5.97599 51.4706 7.16087 51.3895L59.077 47.914C59.4537 47.889 59.8347 47.8765 60.2093 47.8765C63.6759 47.8447 67.0502 48.9823 69.7768 51.102L70.1093 51.3541L70.2756 51.4791L70.7828 51.8646L71.1258 52.1229L71.2879 52.2459L71.6393 52.5126L71.7972 52.6334L71.9635 52.7585L72.6411 53.2731H72.6559L72.8137 53.394L72.9821 53.5211L73.1483 53.6482L73.8302 54.1628L74.1712 54.4233L74.3332 54.5441L74.67 54.8004L75.0109 55.0588C75.0677 55.1004 75.1246 55.1421 75.1793 55.1859L75.3413 55.3088L75.6802 55.5651L76.1916 55.9735L76.3663 56.1047L76.5304 56.2298L76.6946 56.3548L76.8672 56.486L77.0313 56.6111C77.0313 56.6111 77.145 56.6944 77.1997 56.7382L78.0415 57.3799L78.212 57.5091C81.331 55.6047 84.5111 53.6565 87.6216 51.6604L86.8366 51.0666L86.6767 50.9436L86.5104 50.8186L85.3276 49.9226L84.9909 49.6664L84.9762 49.6559L84.8183 49.5351L84.8015 49.5247L84.6478 49.408L84.4774 49.2788L84.128 49.0142L83.9723 48.8954L83.1368 48.2516L82.981 48.1328L82.9663 48.1224L82.8084 48.0036L82.1202 47.4806C82.0676 47.4411 82.015 47.4036 81.9645 47.3619H81.9498C81.895 47.3223 81.8424 47.2827 81.7919 47.241L80.9332 46.593L80.7775 46.4743L80.2766 46.095L79.9357 45.8367L79.5926 45.5762L79.0875 45.1949L78.9191 45.0657L78.7508 44.9386L78.0626 44.4177L77.8921 44.2885C73.182 40.6943 70.6502 35.1206 70.9469 28.9844C71.1953 23.8045 73.443 18.8226 77.2734 14.9595C81.1037 11.0965 86.0916 8.77952 91.3236 8.42947C91.7761 8.39822 92.2349 8.38363 92.6853 8.38363C96.9471 8.38363 100.893 9.71298 104.124 12.2321L104.479 12.5009L104.629 12.6155L105.471 13.2551L106.824 14.2782L108.192 15.32C108.245 15.3596 108.297 15.3992 108.348 15.4408L109.204 16.0889C109.257 16.1284 109.309 16.1659 109.36 16.2076L109.533 16.3368L110.204 16.8452L110.547 17.1057C110.547 17.1057 110.665 17.1932 110.713 17.2328L110.898 17.3703L111.05 17.487H111.063L111.218 17.6057L111.235 17.6182L111.391 17.737C111.391 17.737 111.509 17.8245 111.557 17.8641L112.254 18.3892L112.403 18.5038L113.759 19.5102L114.097 19.7664L114.27 19.8977L114.607 20.1519L114.943 20.4082L114.962 20.4228C115.015 20.4603 115.066 20.4999 115.116 20.5395C115.116 20.5395 115.747 21.0083 115.787 21.0479L115.968 21.177L116.149 21.3146L116.311 21.4375L116.642 21.6875L116.812 21.8167L116.995 21.9542L117.151 22.073L117.324 22.2043L118.357 22.9877L118.509 23.1023L118.864 23.3711L119.014 23.4836L119.521 23.8691L119.687 23.9941L120.365 24.5088L120.889 24.9046L121.055 25.0297C125.765 28.626 128.299 34.1976 128 40.3338C127.962 41.097 127.88 41.8573 127.754 42.6112C129.489 42.1953 131.256 41.9263 133.037 41.807C133.815 41.7549 134.594 41.7299 135.352 41.7299C139.527 41.7299 142.876 42.5383 145.487 43.6239C145.907 43.1267 146.423 42.7189 147.006 42.4249C147.589 42.1308 148.225 41.9568 148.878 41.9132L176.16 40.088C176.269 40.088 176.37 40.0755 176.486 40.0755C177.061 40.0744 177.631 40.1746 178.17 40.3713C178.771 40.0542 179.434 39.8674 180.114 39.8233L185.21 39.4795L185.193 39.467L185.037 39.3483L184.178 38.6982L184.021 38.5794L183.345 38.0669L182.821 37.6689L182.665 37.5522L182.322 37.2917C177.608 33.6975 175.074 28.1238 175.377 21.9855C175.627 16.8035 177.873 11.8237 181.705 7.96066C185.538 4.09763 190.524 1.77856 195.754 1.42851C196.206 1.39726 196.665 1.38267 197.115 1.38267C201.259 1.34323 205.293 2.70038 208.554 5.23112H208.564L208.718 5.3478L208.888 5.47698L209.225 5.73118L209.24 5.74369L209.396 5.86037L210.237 6.50004L210.41 6.63131L211.269 7.2814L211.422 7.39808L211.593 7.52518L211.761 7.65436L213.129 8.69617L213.285 8.81494L214.127 9.45253L214.31 9.59213L214.468 9.71089C214.468 9.71089 214.922 10.0547 214.969 10.0922L216.17 11.0027C216.223 11.0402 216.273 11.0798 216.324 11.1194L217.166 11.7591H217.181L217.336 11.8779H217.349L217.509 11.9987L218.01 12.3779L218.353 12.6363L222.413 15.7117L222.425 15.7221L222.579 15.8388L223.099 16.2326L223.261 16.3556C223.261 16.3556 223.379 16.4431 223.427 16.4827L223.945 16.8744L224.103 16.9931H224.113L224.271 17.1119L224.288 17.1244C224.338 17.164 224.391 17.2015 224.439 17.2411L225.115 17.7516L225.471 18.0516C227.454 19.5603 229.09 21.4695 230.271 23.6524L247.485 22.5022C247.594 22.5022 247.695 22.4897 247.811 22.4897C248.91 22.4868 249.977 22.8542 250.837 23.5315C250.894 23.5732 250.951 23.6149 251.006 23.6607C251.06 23.7066 251.117 23.742 251.172 23.7857C251.227 23.8295 251.288 23.8712 251.344 23.917C251.401 23.9628 251.456 23.9983 251.511 24.042C251.565 24.0858 251.626 24.1274 251.683 24.1733C251.74 24.2191 251.797 24.2566 251.852 24.3004C251.906 24.3441 251.965 24.3837 252.02 24.4296C252.075 24.4754 252.132 24.5108 252.186 24.5546C252.241 24.5983 252.302 24.64 252.359 24.6838L252.527 24.8109L252.698 24.9401L252.866 25.0692L253.036 25.1963C253.091 25.238 253.148 25.2797 253.201 25.3234C253.253 25.3672 253.319 25.4089 253.375 25.4547C253.432 25.5006 253.487 25.536 253.542 25.5797C253.596 25.6235 253.657 25.6652 253.712 25.711C253.767 25.7568 253.826 25.7943 253.88 25.8381L254.051 25.9652L254.217 26.0923C254.274 26.134 254.331 26.1756 254.386 26.2194C254.44 26.2632 254.501 26.3048 254.558 26.3507C254.615 26.3965 254.672 26.434 254.726 26.4778L254.897 26.607C254.954 26.6486 255.011 26.6903 255.065 26.7341L255.232 26.8591C255.288 26.9028 255.345 26.9445 255.402 26.9903C255.459 27.0362 255.516 27.0737 255.573 27.1195L255.743 27.2466L255.911 27.3758C255.966 27.4154 256.023 27.4571 256.078 27.5008C256.132 27.5446 256.193 27.5863 256.25 27.6321C256.307 27.6779 256.362 27.7134 256.416 27.7571C256.471 27.8009 256.532 27.8425 256.587 27.8884C256.642 27.9342 256.701 27.9717 256.757 28.0155L256.926 28.1447C256.983 28.1843 257.037 28.228 257.092 28.2697C257.147 28.3114 257.208 28.3551 257.265 28.401C257.321 28.4468 257.376 28.4822 257.431 28.526C257.486 28.5697 257.547 28.6114 257.601 28.6572C257.656 28.7031 257.717 28.7406 257.772 28.7843C257.827 28.8281 257.885 28.8677 257.94 28.9114L258.106 29.0385C258.165 29.0802 258.222 29.124 258.279 29.1698C258.336 29.2156 258.391 29.2511 258.445 29.2948C258.5 29.3386 258.561 29.3803 258.618 29.4261C258.675 29.4719 258.732 29.5094 258.786 29.5532L258.957 29.6824C259.013 29.7213 259.068 29.7629 259.121 29.8074C259.18 29.8491 259.237 29.8928 259.293 29.9387C259.35 29.9845 259.405 30.0199 259.46 30.0637C259.514 30.1074 259.575 30.1491 259.632 30.1929L259.801 30.322L259.971 30.4491L260.137 30.5762C260.194 30.6179 260.251 30.6596 260.306 30.7033C260.36 30.7471 260.422 30.7888 260.478 30.8346C260.535 30.8805 260.592 30.918 260.647 30.9638C260.701 31.0096 260.76 31.0471 260.817 31.0909C260.874 31.1347 260.931 31.1742 260.986 31.218L261.152 31.3451C261.209 31.3868 261.265 31.4284 261.32 31.4722C261.375 31.516 261.436 31.5576 261.493 31.6035C261.55 31.6493 261.606 31.6868 261.661 31.7306L261.832 31.8598L261.998 31.9848C262.055 32.0285 262.114 32.0702 262.17 32.116L262.335 32.2411C262.394 32.2827 262.45 32.3265 262.507 32.3723C262.564 32.4182 262.623 32.4578 262.678 32.5015C262.732 32.5453 262.791 32.5849 262.846 32.6286C262.901 32.6724 262.958 32.712 263.012 32.7536C263.067 32.7953 263.128 32.8391 263.183 32.8849C263.237 32.9307 263.296 32.9682 263.351 33.0099C263.406 33.0516 263.467 33.0953 263.522 33.1412C263.576 33.187 263.635 33.2245 263.692 33.2683L263.86 33.3975C263.917 33.4371 263.972 33.4787 264.027 33.5225C264.081 33.5662 264.142 33.6079 264.199 33.6538L264.366 33.7788C264.424 33.8225 264.481 33.8642 264.538 33.91C264.595 33.9559 264.652 33.9934 264.706 34.0371L264.875 34.1663C264.932 34.2059 264.986 34.2476 265.041 34.2913L265.212 34.4205C265.268 34.4622 265.327 34.506 265.382 34.5497C265.437 34.5935 265.496 34.6331 265.553 34.6789C265.609 34.7247 265.666 34.7622 265.721 34.806L265.891 34.9352C265.946 34.9748 266.003 35.0164 266.056 35.0602C266.108 35.104 266.171 35.1456 266.228 35.1894L266.396 35.3186C266.455 35.3602 266.51 35.4019 266.567 35.4457L266.735 35.5749L266.902 35.702C266.96 35.7436 267.017 35.7874 267.074 35.8311L267.24 35.9582C267.299 35.9999 267.356 36.0437 267.413 36.0874C267.47 36.1312 267.527 36.1708 267.581 36.2145L267.75 36.3437C267.882 36.4381 268.009 36.5396 268.131 36.6479C275.577 33.6808 283.951 31.7035 291.492 31.1972C293.295 31.0784 295.04 31.0159 296.675 31.0159C305.885 31.0159 312.794 32.9203 317.795 36.8334L318.121 37.0813L318.289 37.2084L319.308 37.9793L319.476 38.1085L319.664 38.2502L319.813 38.3627L320.493 38.8774L320.68 39.0191L320.834 39.1358L321.183 39.4004L321.337 39.5171L321.354 39.5296L321.505 39.6442L321.678 39.7754C321.678 39.7754 321.863 39.915 321.863 39.9171L323.002 16.2847C323.058 15.1105 323.549 13.998 324.38 13.1585C325.211 12.3191 326.325 11.8114 327.51 11.732L355.217 9.87758C355.326 9.87758 355.427 9.87758 355.543 9.87758C356.642 9.87465 357.709 10.2421 358.569 10.9194L358.736 11.0465C358.794 11.0882 358.851 11.1319 358.908 11.1778C358.965 11.2236 359.02 11.2611 359.077 11.3049C359.133 11.3486 359.19 11.3882 359.245 11.432L359.411 11.5591C359.47 11.6007 359.527 11.6424 359.582 11.6882C359.636 11.7341 359.697 11.7716 359.752 11.8174L359.923 11.9445L360.091 12.0737C360.15 12.1154 360.205 12.1571 360.261 12.2008L360.428 12.3279C360.484 12.3696 360.541 12.4113 360.596 12.455C360.651 12.4988 360.712 12.5404 360.769 12.5863C360.825 12.6321 360.882 12.6696 360.937 12.7134L361.105 12.8426C361.162 12.8822 361.219 12.9259 361.274 12.9676L361.444 13.0989C361.501 13.1384 361.556 13.1801 361.61 13.2239C361.665 13.2676 361.726 13.3093 361.783 13.3551C361.84 13.401 361.897 13.4385 361.951 13.4822C362.006 13.526 362.067 13.5677 362.122 13.6114L362.286 13.7364C362.345 13.7781 362.402 13.8219 362.459 13.8677C362.515 13.9136 362.572 13.9511 362.627 13.9927C362.682 14.0344 362.741 14.0782 362.797 14.124C362.854 14.1698 362.911 14.2073 362.966 14.2511C363.021 14.2949 363.079 14.3344 363.136 14.3803C363.193 14.4261 363.248 14.4615 363.303 14.5053L363.473 14.6345C363.53 14.6762 363.587 14.7178 363.641 14.7616L363.812 14.8908C363.871 14.9324 363.925 14.9762 363.982 15.02L364.151 15.1491C364.208 15.1887 364.262 15.2304 364.317 15.2742C364.372 15.3179 364.431 15.3575 364.487 15.4033L364.658 15.5325C364.715 15.5742 364.772 15.6159 364.828 15.6617C364.885 15.7075 364.94 15.7451 364.997 15.7888C365.054 15.8326 365.11 15.8722 365.165 15.9159L365.333 16.043L365.5 16.1701C365.559 16.2139 365.618 16.2576 365.674 16.3035C365.731 16.3493 365.786 16.3847 365.841 16.4285C365.895 16.4722 365.956 16.5139 366.011 16.5577L366.177 16.6848C366.236 16.7264 366.293 16.7681 366.348 16.8139C366.403 16.8598 366.462 16.8973 366.516 16.939C366.571 16.9806 366.632 17.0244 366.687 17.0702C366.741 17.1161 366.8 17.1536 366.857 17.1994C366.914 17.2453 366.971 17.2828 367.026 17.3265C367.08 17.3703 367.137 17.4099 367.192 17.4515C367.247 17.4932 367.308 17.537 367.364 17.5828L367.531 17.7099C367.59 17.7516 367.646 17.7953 367.703 17.8391C367.76 17.8828 367.817 17.9224 367.872 17.9662L368.04 18.0954C368.097 18.135 368.152 18.1787 368.206 18.2204C368.261 18.2621 368.322 18.3058 368.379 18.3517C368.436 18.3975 368.49 18.435 368.545 18.4788C368.6 18.5225 368.661 18.5621 368.718 18.6079C368.774 18.6538 368.831 18.6913 368.886 18.735L369.057 18.8642C369.111 18.9031 369.166 18.9448 369.221 18.9892L369.395 19.1205L369.559 19.2455C369.618 19.2872 369.675 19.331 369.732 19.3768C369.789 19.4226 369.846 19.4601 369.9 19.5039C369.955 19.5477 370.014 19.5893 370.071 19.6331C370.128 19.6768 370.182 19.7143 370.235 19.7581C370.288 19.8019 370.351 19.8414 370.406 19.8873C370.46 19.9331 370.521 19.9727 370.578 20.0165C370.635 20.0602 370.692 20.0998 370.746 20.1457L370.917 20.2728L371.085 20.4019C371.142 20.4415 371.197 20.4853 371.252 20.527C371.306 20.5686 371.365 20.6124 371.422 20.6561L371.593 20.7853L371.763 20.9145L371.931 21.0416L372.098 21.1687C372.157 21.2104 372.213 21.2541 372.268 21.2979C372.323 21.3417 372.382 21.3812 372.434 21.4229C372.487 21.4646 372.552 21.5104 372.607 21.5542C372.662 21.5979 372.721 21.6375 372.777 21.6813C372.834 21.725 372.891 21.7667 372.948 21.8126L373.112 21.9355L373.285 22.0668L373.449 22.1918C373.508 22.2334 373.565 22.2772 373.621 22.323C373.678 22.3689 373.737 22.4064 373.792 22.4522C373.847 22.4981 373.905 22.5356 373.96 22.5793C374.015 22.6231 374.072 22.6627 374.126 22.7064C374.181 22.7502 374.242 22.7898 374.299 22.8356C374.356 22.8814 374.411 22.919 374.465 22.9606L374.638 23.0919L374.806 23.2211C374.863 23.2627 374.92 23.3044 374.975 23.3482C375.029 23.3919 375.088 23.4315 375.143 23.4753C375.198 23.519 375.257 23.5586 375.311 23.6024C375.366 23.6461 375.427 23.6878 375.482 23.7316C375.67 23.8677 375.848 24.0174 376.014 24.1795C376.502 24.6525 376.883 25.2223 377.133 25.8514C377.382 26.4806 377.495 27.1549 377.462 27.83L373.933 101.159C373.876 102.333 373.386 103.446 372.554 104.285C371.723 105.124 370.609 105.632 369.425 105.712L353.535 106.776C353.577 106.805 353.617 106.837 353.657 106.87C353.697 106.903 353.771 106.953 353.826 106.997C353.88 107.041 353.939 107.08 353.994 107.124C354.049 107.168 354.108 107.208 354.162 107.251L354.333 107.381L354.499 107.508C354.558 107.549 354.615 107.593 354.672 107.637L354.84 107.766C354.899 107.808 354.954 107.849 355.01 107.893L355.175 108.018C355.234 108.062 355.29 108.104 355.347 108.149C355.404 108.195 355.461 108.233 355.518 108.279C355.574 108.324 355.631 108.362 355.686 108.406C355.741 108.449 355.8 108.491 355.854 108.535C355.909 108.579 355.968 108.618 356.025 108.662L356.191 108.789C356.384 108.928 356.566 109.081 356.736 109.247C357.101 109.604 357.406 110.015 357.641 110.466L357.748 110.548L357.917 110.677C357.974 110.718 358.367 111.016 358.422 111.06C358.477 111.104 358.536 111.146 358.592 111.187L358.761 111.316L358.931 111.444L359.102 111.573L359.268 111.7C359.325 111.742 359.384 111.785 359.438 111.829L359.607 111.956L359.946 112.212L360.116 112.342L360.282 112.467L360.455 112.6L360.621 112.725C360.68 112.767 360.735 112.81 360.792 112.854L360.96 112.981L361.299 113.238L361.467 113.367L361.638 113.494L362.143 113.877L362.315 114.009L362.484 114.136L362.652 114.263L362.821 114.39L362.989 114.517L363.162 114.648L363.5 114.904L364.849 115.928L365.022 116.059L365.188 116.184L365.357 116.311L365.527 116.44L365.695 116.569C365.754 116.611 365.811 116.655 365.866 116.698C365.921 116.742 365.98 116.782 366.034 116.826C366.089 116.869 366.148 116.911 366.205 116.955L366.375 117.082L366.542 117.209L366.712 117.338L366.878 117.465C366.937 117.507 366.994 117.551 367.051 117.594L367.217 117.722L367.388 117.849L367.558 117.98L367.726 118.107L368.236 118.492L368.402 118.62C371.862 121.178 373.697 125.441 373.436 130.329C373.015 138.456 366.988 144.723 359.125 145.242C358.809 145.263 358.494 145.273 358.178 145.273C356.849 145.279 355.527 145.076 354.261 144.673C353.622 145.036 352.907 145.25 352.171 145.298L350.067 145.436C349.959 145.436 349.856 145.436 349.745 145.436C348.708 145.436 347.699 145.106 346.866 144.496C346.043 145.288 344.961 145.764 343.816 145.838L341.711 145.977C341.604 145.977 341.501 145.988 341.389 145.988C340.889 145.988 340.392 145.912 339.916 145.761C338.561 146.343 337.114 146.687 335.64 146.78C335.284 146.803 334.935 146.815 334.587 146.815C332.039 146.815 329.877 146.134 328.162 144.792L328 144.669L327.832 144.542L327.663 144.413L327.495 144.288C327.146 145.105 326.575 145.811 325.845 146.326C325.116 146.841 324.256 147.145 323.362 147.205L321.223 147.346C321.116 147.346 321.013 147.357 320.901 147.357C319.802 147.356 318.735 146.985 317.877 146.305C317.818 146.263 317.761 146.221 317.706 146.175C317.652 146.13 317.593 146.092 317.538 146.048C317.483 146.005 317.427 145.965 317.372 145.923C317.317 145.882 317.256 145.838 317.199 145.792C317.142 145.746 317.088 145.711 317.033 145.667C316.978 145.623 316.917 145.582 316.86 145.536C316.804 145.49 316.747 145.452 316.692 145.409L316.524 145.279C316.467 145.24 316.41 145.196 316.355 145.154L316.185 145.023C316.128 144.984 316.073 144.94 316.019 144.898L315.844 144.767L315.678 144.64L315.507 144.511L315.341 144.386C315.284 144.344 315.225 144.3 315.17 144.254L315.12 144.219C314.908 145.247 314.36 146.178 313.562 146.868C312.763 147.558 311.758 147.97 310.7 148.04L308.596 148.18C308.486 148.18 308.385 148.19 308.272 148.19C307.553 148.191 306.843 148.032 306.194 147.726C305.502 148.173 304.705 148.437 303.879 148.49L285.491 149.705C285.384 149.705 285.281 149.705 285.169 149.705C284.07 149.708 283.003 149.341 282.143 148.663C282.086 148.624 282.032 148.582 281.977 148.538C281.922 148.494 281.861 148.453 281.804 148.407L281.638 148.282C281.581 148.24 281.522 148.197 281.467 148.151C281.413 148.105 281.354 148.067 281.299 148.024C281.244 147.98 281.185 147.94 281.129 147.896L280.962 147.769L280.79 147.64L280.624 147.513C280.567 147.471 280.508 147.428 280.453 147.382C280.398 147.336 280.339 147.298 280.285 147.255C280.23 147.211 280.169 147.171 280.114 147.126C280.059 147.08 280.003 147.044 279.948 147.001C279.893 146.957 279.832 146.915 279.773 146.869L279.609 146.744C279.55 146.703 279.493 146.659 279.437 146.613C279.38 146.567 279.323 146.53 279.268 146.486C279.213 146.442 279.155 146.403 279.1 146.359L278.934 146.232C278.875 146.19 278.82 146.148 278.763 146.105C278.706 146.061 278.647 146.019 278.59 145.973C278.534 145.927 278.477 145.89 278.422 145.846L278.254 145.717C278.197 145.675 278.14 145.634 278.083 145.588C278.026 145.542 277.972 145.507 277.917 145.463L277.845 145.409L276.97 147.576C276.627 148.406 276.055 149.124 275.32 149.649C274.585 150.173 273.715 150.483 272.811 150.543L266.603 150.959C266.493 150.959 266.392 150.972 266.279 150.972C265.18 150.974 264.114 150.607 263.254 149.93C263.195 149.888 263.141 149.845 263.084 149.801L262.913 149.672L262.749 149.547C262.69 149.505 262.631 149.461 262.575 149.415L262.408 149.29C262.352 149.249 262.295 149.205 262.238 149.159C262.181 149.12 262.126 149.076 262.072 149.034C262.017 148.992 261.956 148.949 261.901 148.905C261.846 148.861 261.787 148.822 261.733 148.778L261.562 148.649C261.505 148.607 261.449 148.565 261.394 148.522L261.223 148.392L261.055 148.263C260.998 148.222 260.941 148.18 260.885 148.134C260.828 148.088 260.773 148.053 260.718 148.009L260.55 147.88C260.491 147.838 260.434 147.794 260.377 147.751C260.32 147.707 260.264 147.667 260.209 147.624C260.154 147.58 260.095 147.54 260.041 147.496L259.87 147.367L259.704 147.24C259.647 147.198 259.59 147.157 259.535 147.113C259.481 147.069 259.418 147.026 259.363 146.982C259.308 146.938 259.249 146.898 259.195 146.855L259.024 146.725C258.967 146.684 258.91 146.642 258.854 146.596C258.797 146.55 258.742 146.515 258.687 146.471L258.521 146.344L258.464 146.303L258.412 147.28C258.349 148.45 257.856 149.557 257.025 150.392C256.194 151.227 255.083 151.731 253.901 151.81L247.377 152.241C247.27 152.241 247.167 152.251 247.055 152.251C246.663 152.251 246.272 152.204 245.891 152.112C245.426 152.293 244.934 152.402 244.435 152.435L228.305 153.487C228.198 153.487 228.091 153.487 227.983 153.487Z" fill="url(#paint0_linear_552_318)"/>
<path d="M59.4125 52.7044L7.49637 56.1819L4.84668 111.229L56.7649 107.756C63.2723 107.318 68.799 101.744 69.1084 95.3039L70.6363 63.5767C70.9457 57.1362 65.9199 52.2689 59.4125 52.7044ZM50.6848 84.4212L40.8353 90.5449L30.971 96.6666C28.0078 98.5085 24.5015 96.6895 24.6572 93.3933L25.1876 82.4355L25.7137 71.4736C25.8737 68.1773 29.5778 65.877 32.3832 67.3314L41.7129 72.1695L51.0425 77.0098C53.8459 78.46 53.648 82.5793 50.6848 84.4212ZM102.31 96.3728C101.679 98.4773 100.591 100.303 98.638 101.571C96.4576 102.986 94.1952 103.363 92.038 102.405C89.6682 101.363 87.4078 100.113 85.0928 98.9398C81.4161 97.0646 77.7604 95.1435 74.071 93.287C73.4249 92.9619 73.1618 92.5931 73.2018 91.8118C73.6396 83.3648 74.0465 74.9192 74.4225 66.475C74.4562 65.7061 74.7298 65.2832 75.4159 64.8602C81.2519 61.2701 87.1469 57.7759 92.8714 53.9899C97.895 50.6749 103.5 52.9481 104.053 57.8155C104.074 57.9079 104.105 57.9974 104.148 58.0822L102.31 96.3728ZM106.078 27.1759C105.68 35.4541 98.5748 42.6176 90.2091 43.178C81.8433 43.7385 75.3864 37.4814 75.7842 29.2032C76.1819 20.925 83.287 13.7594 91.6528 13.199C100.019 12.6385 106.475 18.8976 106.078 27.1759Z" fill="white"/>
<path d="M148.86 51.6007L149.203 46.7062L176.48 44.8789L174.399 88.1327C173.248 112.046 157.758 120.285 134.99 121.81C123.394 122.585 112.153 120.373 105.315 115.745L114.761 99.6468C119.955 102.901 126.624 104.468 133.82 103.985C139.94 103.568 146.467 101.445 146.81 94.3232L146.845 93.5793C146.275 94.3523 141.645 99.003 131.989 99.651C119.21 100.505 106.359 93.9502 107.224 75.9894C108.098 57.8161 120.372 47.4605 133.365 46.6C141.527 46.0457 146.313 48.9024 148.86 51.6007ZM148.42 74.0891C148.706 68.1363 145.726 65.5817 141.967 65.8339C137.564 66.1297 134.71 69.8157 134.46 75.0226C134.203 80.3358 137.164 83.3154 141.138 83.0508C144.575 82.8112 148.144 79.8191 148.42 74.0808V74.0891Z" fill="white"/>
<path d="M177.773 99.6556L180.423 44.6064L208.13 42.752L205.48 97.8012L177.773 99.6556Z" fill="white"/>
<path d="M246.243 59.9045L245.669 71.8103C245.551 74.2564 247.039 74.4731 249.188 74.3293C251.052 74.1672 252.896 73.831 254.695 73.325L254.879 93.9695C249.5 95.5725 243.958 96.5829 238.355 96.9824C224.181 97.9326 217.118 93.4257 217.865 77.909L218.642 61.7547L211.124 62.259L212.075 42.4917L219.593 41.9874L220.212 29.1294L247.811 27.2812L247.193 40.1393L258.254 39.3975L257.303 59.1648L246.243 59.9045Z" fill="white"/>
<path d="M294.159 91.8681L293.841 87.3341C289.648 92.1702 283.029 93.9892 276.793 94.4059C266.161 95.1185 257.116 89.5782 257.694 77.5703C258.292 65.1352 271.991 60.7242 283.732 59.1948L295.367 57.6759L295.398 57.0383C295.499 54.913 292.466 53.4211 286.239 53.8379C280.011 54.2546 272.835 56.5361 267.777 59.3094L263.147 44.2595C269.964 40.509 280.958 36.7126 291.806 35.9854C310.922 34.7061 322.743 40.3777 321.762 60.7805L320.35 90.1116L294.159 91.8681ZM289.791 69.1733C287.209 69.4504 284.36 70.8068 284.206 73.9948C284.059 77.0765 286.473 78.0808 289.156 77.9016C291.839 77.7224 294.169 76.0826 294.731 75.5158L295.063 68.6065L289.791 69.1733Z" fill="white"/>
<path d="M324.305 89.8492L327.834 16.5204L355.541 14.666L352.012 87.9948L324.305 89.8492Z" fill="white"/>
<path d="M205.484 31.1664C211.719 24.9547 212.242 15.4602 206.651 9.95982C201.06 4.45946 191.474 5.03612 185.239 11.2478C179.004 17.4595 178.481 26.954 184.072 32.4544C189.663 37.9548 199.25 37.3781 205.484 31.1664Z" fill="white"/>
<path d="M201.044 124.685C203.503 122.235 203.707 118.488 201.499 116.315C199.292 114.143 195.508 114.369 193.048 116.819C190.589 119.269 190.385 123.017 192.593 125.189C194.8 127.361 198.584 127.136 201.044 124.685Z" fill="white"/>
<path d="M227.031 134.696L210.901 135.761L212.375 107.903L218.865 107.474L217.67 129.923L227.307 129.285L227.031 134.696Z" fill="white"/>
<path d="M236.506 134.071L229.981 134.502L231.455 106.642L237.979 106.211L236.506 134.071Z" fill="white"/>
<path d="M267.22 104.28L255.413 132.826L249.205 133.243L240.365 106.066L247.31 105.608L252.822 124.36L260.336 104.753L267.22 104.28Z" fill="white"/>
<path d="M286.504 130.775L268.116 131.99L269.589 104.13L287.613 102.94L287.337 108.149L275.804 108.91L275.501 114.602L286.388 113.884L286.11 119.093L275.223 119.811L274.88 126.271L286.776 125.485L286.504 130.775Z" fill="white"/>
<path d="M305.981 129.482L303.842 129.622L304.434 118.52C304.596 115.491 304.236 112.417 300.204 112.686C296.171 112.955 294.05 116.593 293.814 121.033L293.319 130.32L291.215 130.457L292.688 102.599L294.793 102.462L294.123 115.057C295.176 112.776 297.672 111.042 300.374 110.863C305.737 110.509 306.804 113.859 306.568 118.299L305.981 129.482Z" fill="white"/>
<path d="M326.429 128.134L324.324 128.271L324.486 125.244C323.857 126.35 322.956 127.28 321.867 127.95C320.777 128.62 319.535 129.007 318.255 129.075C315.632 129.248 314.226 128.496 313.326 127.309C312.425 126.121 312.088 124.131 312.229 121.506L312.821 110.362L314.925 110.225L314.315 121.685C314.163 124.51 314.525 127.504 318.64 127.233C322.792 126.958 324.6 123.218 324.794 119.585L325.328 109.531L327.433 109.394L326.429 128.134Z" fill="white"/>
<path d="M341.722 127.523C338.9 127.709 336.385 126.669 334.958 124.027L334.769 127.569L332.664 127.709L334.137 99.8485L336.242 99.7109L335.564 112.421C337.53 109.475 340.127 108.216 342.829 108.045C348.394 107.677 351.803 111.556 351.507 117.128C351.222 122.67 347.369 127.15 341.722 127.523ZM342.663 109.879C338.107 110.179 335.419 113.859 335.187 118.213C334.956 122.535 337.267 125.923 341.823 125.621C346.34 125.323 349.069 121.601 349.299 117.286C349.532 112.925 347.179 109.581 342.663 109.879Z" fill="white"/>
<defs>
<linearGradient id="paint0_linear_552_318" x1="0.00524451" y1="77.4368" x2="377.464" y2="77.4368" gradientUnits="userSpaceOnUse">
<stop stop-color="#ED1C77"/>
<stop offset="0.15" stop-color="#DE2179"/>
<stop offset="0.44" stop-color="#B72E7D"/>
<stop offset="0.83" stop-color="#794384"/>
<stop offset="0.99" stop-color="#5D4D87"/>
</linearGradient>
</defs>
</svg>
